#Comment line ignore any data following # character 
#Hierarchical Translation and Rotation (.htr) file 
[Header]	
#Header keywords are followed by a single value 
FileType HTR		#Single word string
DataType HTRS		#Translation followed by rotation and scale data
FileVersion 1		#integer
NumSegments 84		#integer
NumFrames 2		#integer
DataFrameRate 30		#integer, data frame rate in this file
EulerRotationOrder ZYX
CalibrationUnits mm
RotationUnits Degrees
GlobalAxisofGravity Y
BoneLengthAxis Y
ScaleFactor 1.00
[SegmentNames&Hierarchy]
#CHILD	PARENT
MASTER GLOBAL
root MASTER
chest root
L_mid_tent01 root
R_mid_tent01 root
spine01 root
Bip01_Neck chest
L_humerus chest
R_humerus chest
weapon_bone chest
Bip01_Head Bip01_Neck
eye_left_bone Bip01_Head
eye_right_bone Bip01_Head
L_forearm L_humerus
L_front_hand L_forearm
L_weapon_bone L_forearm
L_front_hand01_01 L_front_hand
L_front_hand02_01 L_front_hand
L_front_hand03_01 L_front_hand
L_front_hand01_02 L_front_hand01_01
L_front_hand02_02 L_front_hand02_01
L_front_hand03_02 L_front_hand03_01
R_forearm R_humerus
R_front_hand R_forearm
R_weapon_bone R_forearm
R_front_hand01_01 R_front_hand
R_front_hand02_01 R_front_hand
R_front_hand03_01 R_front_hand
R_front_hand01_02 R_front_hand01_01
R_front_hand02_02 R_front_hand02_01
R_front_hand03_02 R_front_hand03_01
null_rope01_connect L_mid_tent01
Rope1_Seg01 null_rope01_connect
Rope1_Seg02 Rope1_Seg01
Rope1_Seg03 Rope1_Seg02
Rope1_Seg04 Rope1_Seg03
Rope1_Seg05 Rope1_Seg04
Rope1_Seg06 Rope1_Seg05
Rope1_Seg07 Rope1_Seg06
Rope1_Seg09 Rope1_Seg07
L_mid_hand01 Rope1_Seg09
L_mid_hand02 Rope1_Seg09
L_mid_hand03 Rope1_Seg09
null_rope02_connect R_mid_tent01
Rope2_Seg01 null_rope02_connect
Rope2_Seg02 Rope2_Seg01
Rope2_Seg03 Rope2_Seg02
Rope2_Seg04 Rope2_Seg03
Rope2_Seg05 Rope2_Seg04
Rope2_Seg06 Rope2_Seg05
Rope2_Seg07 Rope2_Seg06
Rope2_Seg09 Rope2_Seg07
R_mid_hand01 Rope2_Seg09
R_mid_hand02 Rope2_Seg09
R_mid_hand03 Rope2_Seg09
spine02 spine01
spine03 spine02
pelvis spine03
null_rope03_connect pelvis
null_rope04_connect pelvis
Rope3_Seg01 null_rope03_connect
Rope3_Seg02 Rope3_Seg01
Rope3_Seg03 Rope3_Seg02
Rope3_Seg04 Rope3_Seg03
Rope3_Seg05 Rope3_Seg04
Rope3_Seg06 Rope3_Seg05
Rope3_Seg07 Rope3_Seg06
Rope3_Seg08 Rope3_Seg07
Rope3_Seg09 Rope3_Seg08
R_rear_hand01 Rope3_Seg09
R_rear_hand02 Rope3_Seg09
R_rear_hand03 Rope3_Seg09
Rope4_Seg01 null_rope04_connect
Rope4_Seg02 Rope4_Seg01
Rope4_Seg03 Rope4_Seg02
Rope4_Seg04 Rope4_Seg03
Rope4_Seg05 Rope4_Seg04
Rope4_Seg06 Rope4_Seg05
Rope4_Seg07 Rope4_Seg06
Rope4_Seg08 Rope4_Seg07
Rope4_Seg09 Rope4_Seg08
L_rear_hand01 Rope4_Seg09
L_rear_hand02 Rope4_Seg09
L_rear_hand03 Rope4_Seg09
[BasePosition]
#SegmentName Tx, Ty, Tz, Rx, Ry, Rz, BoneLength
MASTER 0.000000 0.000000 0.000000 -90.000000 0.000000 0.000000 10.000000 
root 0.000000 0.000000 0.000000 0.000000 0.000000 0.000000 10.000000 
chest 0.000000 0.000000 0.000000 0.000000 0.000000 0.000000 10.000000 
L_mid_tent01 0.000000 0.000000 0.000000 0.000000 0.000000 0.000000 10.000000 
R_mid_tent01 0.000000 0.000000 0.000000 0.000000 0.000000 0.000000 10.000000 
spine01 0.000000 0.000000 0.000000 0.000000 0.000000 0.000000 10.000000 
Bip01_Neck 0.000000 0.000000 0.000000 0.000000 0.000000 0.000000 10.000000 
L_humerus 0.000000 0.000000 0.000000 0.000000 0.000000 0.000000 10.000000 
R_humerus 0.000000 0.000000 0.000000 0.000000 0.000000 0.000000 10.000000 
weapon_bone 0.000000 0.000000 0.000000 0.000000 0.000000 0.000000 10.000000 
Bip01_Head 0.000000 0.000000 0.000000 0.000000 0.000000 0.000000 10.000000 
eye_left_bone 0.000000 0.000000 0.000000 0.000000 0.000000 0.000000 10.000000 
eye_right_bone 0.000000 0.000000 0.000000 0.000000 0.000000 0.000000 10.000000 
L_forearm 0.000000 0.000000 0.000000 0.000000 0.000000 0.000000 10.000000 
L_front_hand 0.000000 0.000000 0.000000 0.000000 0.000000 0.000000 10.000000 
L_weapon_bone 0.000000 0.000000 0.000000 0.000000 0.000000 0.000000 10.000000 
L_front_hand01_01 0.000000 0.000000 0.000000 0.000000 0.000000 0.000000 10.000000 
L_front_hand02_01 0.000000 0.000000 0.000000 0.000000 0.000000 0.000000 10.000000 
L_front_hand03_01 0.000000 0.000000 0.000000 0.000000 0.000000 0.000000 10.000000 
L_front_hand01_02 0.000000 0.000000 0.000000 0.000000 0.000000 0.000000 10.000000 
L_front_hand02_02 0.000000 0.000000 0.000000 0.000000 0.000000 0.000000 10.000000 
L_front_hand03_02 0.000000 0.000000 0.000000 0.000000 0.000000 0.000000 10.000000 
R_forearm 0.000000 0.000000 0.000000 0.000000 0.000000 0.000000 10.000000 
R_front_hand 0.000000 0.000000 0.000000 0.000000 0.000000 0.000000 10.000000 
R_weapon_bone 0.000000 0.000000 0.000000 0.000000 0.000000 0.000000 10.000000 
R_front_hand01_01 0.000000 0.000000 0.000000 0.000000 0.000000 0.000000 10.000000 
R_front_hand02_01 0.000000 0.000000 0.000000 0.000000 0.000000 0.000000 10.000000 
R_front_hand03_01 0.000000 0.000000 0.000000 0.000000 0.000000 0.000000 10.000000 
R_front_hand01_02 0.000000 0.000000 0.000000 0.000000 0.000000 0.000000 10.000000 
R_front_hand02_02 0.000000 0.000000 0.000000 0.000000 0.000000 0.000000 10.000000 
R_front_hand03_02 0.000000 0.000000 0.000000 0.000000 0.000000 0.000000 10.000000 
null_rope01_connect 0.000000 0.000000 0.000000 0.000000 0.000000 0.000000 10.000000 
Rope1_Seg01 0.000000 0.000000 0.000000 0.000000 0.000000 0.000000 10.000000 
Rope1_Seg02 0.000000 0.000000 0.000000 0.000000 0.000000 0.000000 10.000000 
Rope1_Seg03 0.000000 0.000000 0.000000 0.000000 0.000000 0.000000 10.000000 
Rope1_Seg04 0.000000 0.000000 0.000000 0.000000 0.000000 0.000000 10.000000 
Rope1_Seg05 0.000000 0.000000 0.000000 0.000000 0.000000 0.000000 10.000000 
Rope1_Seg06 0.000000 0.000000 0.000000 0.000000 0.000000 0.000000 10.000000 
Rope1_Seg07 0.000000 0.000000 0.000000 0.000000 0.000000 0.000000 10.000000 
Rope1_Seg09 0.000000 0.000000 0.000000 0.000000 0.000000 0.000000 10.000000 
L_mid_hand01 0.000000 0.000000 0.000000 0.000000 0.000000 0.000000 10.000000 
L_mid_hand02 0.000000 0.000000 0.000000 0.000000 0.000000 0.000000 10.000000 
L_mid_hand03 0.000000 0.000000 0.000000 0.000000 0.000000 0.000000 10.000000 
null_rope02_connect 0.000000 0.000000 0.000000 0.000000 0.000000 0.000000 10.000000 
Rope2_Seg01 0.000000 0.000000 0.000000 0.000000 0.000000 0.000000 10.000000 
Rope2_Seg02 0.000000 0.000000 0.000000 0.000000 0.000000 0.000000 10.000000 
Rope2_Seg03 0.000000 0.000000 0.000000 0.000000 0.000000 0.000000 10.000000 
Rope2_Seg04 0.000000 0.000000 0.000000 0.000000 0.000000 0.000000 10.000000 
Rope2_Seg05 0.000000 0.000000 0.000000 0.000000 0.000000 0.000000 10.000000 
Rope2_Seg06 0.000000 0.000000 0.000000 0.000000 0.000000 0.000000 10.000000 
Rope2_Seg07 0.000000 0.000000 0.000000 0.000000 0.000000 0.000000 10.000000 
Rope2_Seg09 0.000000 0.000000 0.000000 0.000000 0.000000 0.000000 10.000000 
R_mid_hand01 0.000000 0.000000 0.000000 0.000000 0.000000 0.000000 10.000000 
R_mid_hand02 0.000000 0.000000 0.000000 0.000000 0.000000 0.000000 10.000000 
R_mid_hand03 0.000000 0.000000 0.000000 0.000000 0.000000 0.000000 10.000000 
spine02 0.000000 0.000000 0.000000 0.000000 0.000000 0.000000 10.000000 
spine03 0.000000 0.000000 0.000000 0.000000 0.000000 0.000000 10.000000 
pelvis 0.000000 0.000000 0.000000 0.000000 0.000000 0.000000 10.000000 
null_rope03_connect 0.000000 0.000000 0.000000 0.000000 0.000000 0.000000 10.000000 
null_rope04_connect 0.000000 0.000000 0.000000 0.000000 0.000000 0.000000 10.000000 
Rope3_Seg01 0.000000 0.000000 0.000000 0.000000 0.000000 0.000000 10.000000 
Rope3_Seg02 0.000000 0.000000 0.000000 0.000000 0.000000 0.000000 10.000000 
Rope3_Seg03 0.000000 0.000000 0.000000 0.000000 0.000000 0.000000 10.000000 
Rope3_Seg04 0.000000 0.000000 0.000000 0.000000 0.000000 0.000000 10.000000 
Rope3_Seg05 0.000000 0.000000 0.000000 0.000000 0.000000 0.000000 10.000000 
Rope3_Seg06 0.000000 0.000000 0.000000 0.000000 0.000000 0.000000 10.000000 
Rope3_Seg07 0.000000 0.000000 0.000000 0.000000 0.000000 0.000000 10.000000 
Rope3_Seg08 0.000000 0.000000 0.000000 0.000000 0.000000 0.000000 10.000000 
Rope3_Seg09 0.000000 0.000000 0.000000 0.000000 0.000000 0.000000 10.000000 
R_rear_hand01 0.000000 0.000000 0.000000 0.000000 0.000000 0.000000 10.000000 
R_rear_hand02 0.000000 0.000000 0.000000 0.000000 0.000000 0.000000 10.000000 
R_rear_hand03 0.000000 0.000000 0.000000 0.000000 0.000000 0.000000 10.000000 
Rope4_Seg01 0.000000 0.000000 0.000000 0.000000 0.000000 0.000000 10.000000 
Rope4_Seg02 0.000000 0.000000 0.000000 0.000000 0.000000 0.000000 10.000000 
Rope4_Seg03 0.000000 0.000000 0.000000 0.000000 0.000000 0.000000 10.000000 
Rope4_Seg04 0.000000 0.000000 0.000000 0.000000 0.000000 0.000000 10.000000 
Rope4_Seg05 0.000000 0.000000 0.000000 0.000000 0.000000 0.000000 10.000000 
Rope4_Seg06 0.000000 0.000000 0.000000 0.000000 0.000000 0.000000 10.000000 
Rope4_Seg07 0.000000 0.000000 0.000000 0.000000 0.000000 0.000000 10.000000 
Rope4_Seg08 0.000000 0.000000 0.000000 0.000000 0.000000 0.000000 10.000000 
Rope4_Seg09 0.000000 0.000000 0.000000 0.000000 0.000000 0.000000 10.000000 
L_rear_hand01 0.000000 0.000000 0.000000 0.000000 0.000000 0.000000 10.000000 
L_rear_hand02 0.000000 0.000000 0.000000 0.000000 0.000000 0.000000 10.000000 
L_rear_hand03 0.000000 0.000000 0.000000 0.000000 0.000000 0.000000 10.000000 
#Beginning of Data. Separated by tabs
#Fr	Tx	Ty	Tz	Rx	Ry	Rz	SF
[MASTER]
60 -331.203705 -2113.949951 0.403336 0.001660 0.001660 0.001660 2139.738525
61 -328.783600 -2166.737793 0.428855 0.001660 0.001660 0.001660 2191.540771
[root]
60 -16.502304 -62.822109 1421.195923 -86.749214 -27.038219 -92.721817 1422.679443
61 -16.502304 -62.822109 1430.847656 -89.301445 -27.686802 -91.728424 1432.321167
[chest]
60 -84.512650 -34.090519 0.000000 -2.485838 0.617984 171.304672 91.129311
61 -84.512650 -34.090519 0.000000 -2.546160 0.621800 171.234695 91.129311
[L_mid_tent01]
60 27.299486 22.177629 -249.918274 -1.379268 36.511192 66.497536 252.381165
61 27.299486 22.177631 -249.918274 -1.379268 36.511192 66.497536 252.381165
[R_mid_tent01]
60 23.228794 24.509907 226.238495 173.895706 -30.891880 58.389252 228.744751
61 23.228794 24.509907 226.238495 173.895706 -30.891880 58.389252 228.744751
[spine01]
60 -0.361383 -0.195265 0.000000 0.001845 0.001451 13.654368 0.410763
61 -0.361383 -0.195265 0.000000 0.001845 0.001451 13.654368 0.410763
[Bip01_Neck]
60 165.484543 71.581718 0.000119 176.643677 -1.657967 43.431911 180.302734
61 165.484543 71.581718 0.000119 176.643677 -1.657967 43.431911 180.302734
[L_humerus]
60 -13.983130 -135.272980 -120.471481 178.690796 28.843397 -90.316689 181.680161
61 -13.983130 -135.272980 -120.471481 177.934998 32.727242 -90.999588 181.680161
[R_humerus]
60 -13.983309 -135.273102 125.287651 -171.755295 -20.018209 -98.663605 184.909012
61 -13.983309 -135.273102 125.287651 -171.568924 -24.284866 -98.254089 184.909012
[weapon_bone]
60 235.964890 -300.705902 0.000000 0.000000 -89.951546 -128.212341 382.234833
61 235.964890 -300.705902 0.000000 0.000000 -89.951546 -128.212341 382.234833
[Bip01_Head]
60 213.444473 185.715591 11.776996 -17.015686 -10.370970 -37.269146 283.174011
61 213.444473 185.715607 11.776997 -15.465219 -9.446017 -38.524284 283.174042
[eye_left_bone]
60 -24.626970 125.451866 -64.772606 0.000000 -90.000000 -99.840431 143.318359
61 -24.626970 125.451866 -64.772606 0.000000 -90.000000 -99.840431 143.318359
[eye_right_bone]
60 -24.626970 125.451866 64.327362 0.000000 -89.965736 80.156380 143.117676
61 -24.626970 125.451866 64.327362 0.000000 -89.965736 80.156380 143.117676
[L_forearm]
60 322.776093 0.000000 -0.000119 0.000119 -0.002344 -95.807457 322.776093
61 322.776093 0.000000 -0.000119 0.000119 -0.002344 -95.807457 322.776093
[L_front_hand]
60 241.149185 -0.042021 -3.300071 149.893951 -1.837326 -27.423067 241.171753
61 241.149185 -0.042021 -3.300071 149.893951 -1.837326 -27.423067 241.171753
[L_weapon_bone]
60 156.183838 0.000000 0.000000 0.000014 0.000007 0.000001 156.183838
61 156.183838 0.000000 0.000000 0.000014 0.000007 0.000001 156.183838
[L_front_hand01_01]
60 86.095154 20.947098 -0.655860 -0.366594 -0.477154 75.385574 88.609184
61 86.095154 20.947098 -0.655860 -0.366594 -0.477154 75.385574 88.609184
[L_front_hand02_01]
60 86.935165 -11.437475 24.513514 154.399796 -59.883835 -61.369587 91.046425
61 86.935165 -11.437475 24.513514 154.399796 -59.883835 -61.369587 91.046425
[L_front_hand03_01]
60 86.637497 -14.123976 -20.424902 -153.913849 58.118122 -62.702866 90.126129
61 86.637497 -14.123976 -20.424902 -153.913849 58.118122 -62.702866 90.126129
[L_front_hand01_02]
60 71.020905 -0.000179 0.000030 0.000334 -0.002323 -106.379684 71.020905
61 71.020905 -0.000179 0.000030 0.000334 -0.002323 -106.379684 71.020905
[L_front_hand02_02]
60 71.020927 -0.000119 0.000060 0.000334 -0.002323 -106.379684 71.020927
61 71.020927 -0.000119 0.000060 0.000334 -0.002323 -106.379684 71.020927
[L_front_hand03_02]
60 71.020905 -0.000060 0.000060 0.000334 -0.002323 -106.379684 71.020905
61 71.020905 -0.000060 0.000060 0.000334 -0.002323 -106.379684 71.020905
[R_forearm]
60 322.776428 -0.000060 0.000030 0.211359 0.032630 -99.435143 322.776428
61 322.776428 -0.000060 0.000030 0.211242 0.033382 -99.842957 322.776428
[R_front_hand]
60 238.847015 -0.006795 2.210259 -8.879457 -10.642941 -26.315098 238.857239
61 238.847015 -0.006795 2.210259 -8.879457 -10.642941 -26.315098 238.857239
[R_weapon_bone]
60 155.664093 0.002503 -0.000030 0.003487 0.001180 -90.988930 155.664078
61 155.664093 0.002503 -0.000030 0.003487 0.001180 -90.988930 155.664078
[R_front_hand01_01]
60 87.624611 14.231146 22.918642 -154.633499 -59.950619 61.746044 91.683487
61 87.624611 14.231146 22.918642 -154.633499 -59.950619 61.746044 91.683487
[R_front_hand02_01]
60 89.356956 14.367283 -19.491137 154.602661 58.302849 63.744389 92.579636
61 89.356956 14.367283 -19.491137 154.602661 58.302849 63.744389 92.579636
[R_front_hand03_01]
60 87.286232 -22.307278 -0.143439 0.162155 -0.423168 -75.767921 90.091743
61 87.286232 -22.307278 -0.143439 0.162155 -0.423168 -75.767921 90.091743
[R_front_hand01_02]
60 71.020905 0.000060 0.000119 0.002323 -0.000334 106.381714 71.020905
61 71.020905 0.000060 0.000119 0.002323 -0.000334 106.381714 71.020905
[R_front_hand02_02]
60 71.020844 -0.000030 -0.000119 0.002323 -0.000334 106.381714 71.020836
61 71.020844 -0.000030 -0.000119 0.002323 -0.000334 106.381714 71.020836
[R_front_hand03_02]
60 71.020905 0.000000 0.000030 0.002323 -0.000334 106.381714 71.020905
61 71.020905 0.000000 0.000030 0.002323 -0.000334 106.381714 71.020905
[null_rope01_connect]
60 328.732483 0.000000 -0.000238 -127.560463 -54.357185 176.738083 328.732483
61 328.732483 0.000000 -0.000238 -129.289612 -52.791451 179.570282 328.732483
[Rope1_Seg01]
60 -0.000023 0.000007 0.000028 116.552505 11.776965 -177.690948 0.000036
61 -0.000022 0.000006 0.000025 115.709442 10.659113 -175.708267 0.000034
[Rope1_Seg02]
60 139.999863 -0.000179 0.000000 10.568628 -13.127620 -8.471573 139.999863
61 139.999863 -0.000179 0.000000 11.174604 -15.015649 -7.658216 139.999863
[Rope1_Seg03]
60 139.999924 0.000060 -0.000060 7.383986 -11.020975 -6.474606 139.999924
61 139.999924 0.000060 -0.000060 6.551562 -12.470151 -4.462826 139.999924
[Rope1_Seg04]
60 139.999924 -0.000060 -0.000119 5.023031 -11.999768 -2.940912 139.999924
61 139.999924 -0.000060 -0.000119 4.068922 -12.485792 -1.967004 139.999924
[Rope1_Seg05]
60 139.999832 0.000119 -0.000060 2.250157 -18.293705 2.966585 139.999832
61 139.999832 0.000119 -0.000060 2.185238 -17.642494 0.733706 139.999832
[Rope1_Seg06]
60 139.999954 0.000119 -0.000060 -0.139875 -12.227386 2.528667 139.999954
61 139.999954 0.000119 -0.000060 -0.137142 -12.012902 0.941038 139.999954
[Rope1_Seg07]
60 139.999985 0.000060 0.000000 -0.584436 -6.886286 1.176400 139.999985
61 139.999985 0.000060 0.000000 -0.634011 -6.954020 0.431597 139.999985
[Rope1_Seg09]
60 121.602913 0.000119 -0.000089 -89.793175 -1.359789 0.847147 121.602913
61 121.602913 0.000119 -0.000089 -89.793175 -1.359789 0.847147 121.602913
[L_mid_hand01]
60 103.859421 1.038730 8.195221 130.544373 -67.584534 -38.866943 104.187431
61 103.859421 1.038730 8.195221 130.544373 -67.584534 -38.866943 104.187431
[L_mid_hand02]
60 105.572853 -4.139662 -10.864139 -168.923172 43.409309 -73.498886 106.211075
61 105.572853 -4.139662 -10.864139 -168.923172 43.409309 -73.498894 106.211075
[L_mid_hand03]
60 104.641464 17.579376 -3.913581 -6.012626 17.808172 74.893661 106.179977
61 104.641464 17.579376 -3.913581 -6.012627 17.808174 74.893669 106.179977
[null_rope02_connect]
60 328.732849 0.000179 -0.000119 -114.671143 58.634319 4.034503 328.732849
61 328.732849 0.000179 -0.000119 -110.687187 59.682468 8.029500 328.732849
[Rope2_Seg01]
60 0.000069 0.000028 0.000000 -93.645119 22.969061 -34.696514 0.000075
61 0.000070 0.000025 0.000000 -98.026031 22.556000 -36.527008 0.000074
[Rope2_Seg02]
60 139.999741 -0.000060 -0.000119 -3.316605 -20.812445 10.725128 139.999756
61 139.999741 -0.000060 -0.000119 2.823774 -22.923096 8.104361 139.999756
[Rope2_Seg03]
60 140.000107 0.000030 0.000000 -3.187945 -24.327206 12.461642 140.000107
61 140.000107 0.000030 0.000000 -1.904607 -25.682875 11.456692 140.000107
[Rope2_Seg04]
60 139.999802 0.000000 -0.000060 -1.218787 -16.531197 7.906304 139.999802
61 139.999802 0.000000 -0.000060 -1.031569 -16.748960 7.552489 139.999802
[Rope2_Seg05]
60 139.999985 -0.000060 0.000119 -0.180618 -10.129436 3.344786 139.999985
61 139.999985 -0.000060 0.000119 -0.477524 -8.907439 4.683414 139.999985
[Rope2_Seg06]
60 139.999893 -0.000030 -0.000119 -0.204179 -7.310607 1.902979 139.999893
61 139.999893 -0.000030 -0.000119 -0.201928 -5.684804 3.102014 139.999893
[Rope2_Seg07]
60 139.999893 0.000060 -0.000060 -0.192459 -4.819617 1.554243 139.999893
61 139.999893 0.000060 -0.000060 -0.092495 -3.816075 1.934735 139.999893
[Rope2_Seg09]
60 121.338966 0.000089 -0.000060 33.793236 -1.359788 -0.847141 121.338966
61 121.338966 0.000089 -0.000060 33.793236 -1.359788 -0.847141 121.338966
[R_mid_hand01]
60 104.680779 11.144459 -10.335981 -16.212063 45.237247 70.462852 105.778534
61 104.680779 11.144459 -10.335981 -16.212063 45.237240 70.462845 105.778534
[R_mid_hand02]
60 104.070427 2.443552 8.231699 49.067368 -67.749771 39.286453 104.424065
61 104.070427 2.443552 8.231699 49.067368 -67.749771 39.286453 104.424065
[R_mid_hand03]
60 106.028137 -11.221827 -5.996406 -177.101105 15.551026 -76.585571 106.788818
61 106.028137 -11.221827 -5.996406 -177.101105 15.551026 -76.585571 106.788818
[spine02]
60 129.756927 0.001550 0.000119 -1.023899 -3.926965 6.770993 129.756927
61 129.756927 0.001550 0.000119 -1.023899 -3.926965 6.770993 129.756927
[spine03]
60 78.613846 0.087372 -4.898873 1.040681 4.146420 4.212376 78.766380
61 78.613846 0.087372 -4.898873 1.040681 4.146420 4.212376 78.766380
[pelvis]
60 169.435242 0.051022 0.000000 0.019518 -0.190233 -10.721436 169.435257
61 169.435242 0.051022 0.000000 0.019518 -0.190233 -10.721436 169.435257
[null_rope03_connect]
60 -1.257226 -2.466202 137.391083 -27.593515 -87.049324 130.863159 137.418976
61 -1.257226 -2.466202 137.391083 -77.497871 -88.433769 -178.649673 137.418976
[null_rope04_connect]
60 -1.259640 -2.480268 -137.844437 -27.593515 -87.049324 130.863159 137.872513
61 -1.259640 -2.480268 -137.844437 -77.497871 -88.433769 -178.649673 137.872513
[Rope3_Seg01]
60 -0.000021 0.000236 -0.000125 -137.539825 -18.620092 -54.720695 0.000268
61 -0.000021 0.000242 -0.000127 -137.469879 -18.592913 -54.961678 0.000274
[Rope3_Seg02]
60 139.999924 -0.000119 0.000060 -9.895373 -5.288000 -28.449938 139.999924
61 139.999924 -0.000119 0.000060 -8.118442 -7.035461 -28.488607 139.999924
[Rope3_Seg03]
60 139.999924 -0.000119 0.000119 -69.469994 3.292317 -38.371201 139.999924
61 139.999924 -0.000119 0.000119 -74.555244 0.389524 -38.633972 139.999924
[Rope3_Seg04]
60 139.999924 0.000119 0.000000 -52.896759 28.009161 -17.465906 139.999924
61 139.999924 0.000119 0.000000 -53.862179 27.322504 -15.656878 139.999924
[Rope3_Seg05]
60 139.999924 -0.000238 0.000060 -11.078029 21.397585 4.519349 139.999924
61 139.999924 -0.000238 0.000060 -11.767657 25.113138 6.757538 139.999924
[Rope3_Seg06]
60 139.999893 -0.000119 -0.000060 -1.403962 6.807312 3.451530 139.999893
61 139.999893 -0.000119 -0.000060 -1.204792 8.087676 4.762245 139.999893
[Rope3_Seg07]
60 139.999771 0.000060 -0.000119 -0.286045 3.796565 2.070651 139.999771
61 139.999771 0.000060 -0.000119 -0.104863 4.284371 2.710150 139.999771
[Rope3_Seg08]
60 139.999985 -0.000060 0.000000 0.152175 2.131934 1.176854 139.999985
61 139.999985 -0.000060 0.000000 0.255340 2.362727 1.505845 139.999985
[Rope3_Seg09]
60 90.185997 -0.000179 -0.000060 89.793228 -1.359877 -0.847183 90.185997
61 90.185997 -0.000179 -0.000060 89.793228 -1.359877 -0.847183 90.185997
[R_rear_hand01]
60 103.366196 -6.073594 -10.757982 -177.714203 24.565960 -73.910950 104.101845
61 103.366196 -6.073594 -10.757982 -177.714203 24.565960 -73.910950 104.101845
[R_rear_hand02]
60 100.509819 12.039542 -7.992327 -12.874829 36.868488 72.167213 101.543350
61 100.509819 12.039542 -7.992327 -12.874829 36.868488 72.167213 101.543350
[R_rear_hand03]
60 101.539970 5.215704 5.435467 71.484581 -71.816628 21.513813 101.819031
61 101.539970 5.215704 5.435467 71.484581 -71.816628 21.513813 101.819031
[Rope4_Seg01]
60 0.000000 0.000000 0.000000 86.286880 -45.213795 -147.964432 0.000000
61 0.000000 0.000000 0.000000 87.148987 -47.233070 -147.126587 0.000000
[Rope4_Seg02]
60 139.999985 0.000060 0.000119 27.176670 -24.933859 12.374217 139.999985
61 139.999985 0.000060 0.000119 25.970440 -24.728434 13.795459 139.999985
[Rope4_Seg03]
60 139.999924 0.000000 -0.000238 31.716032 -14.765449 22.027660 139.999924
61 139.999924 0.000000 -0.000238 28.784391 -13.862045 22.485899 139.999924
[Rope4_Seg04]
60 139.999985 0.000000 0.000119 23.644575 -0.602638 36.929398 139.999985
61 139.999985 0.000000 0.000119 21.859694 -1.738033 35.093071 139.999985
[Rope4_Seg05]
60 139.999802 -0.000060 -0.000119 7.923803 11.562117 29.290127 139.999802
61 139.999802 -0.000060 -0.000119 8.262086 9.854470 30.595379 139.999802
[Rope4_Seg06]
60 139.999924 0.000000 0.000060 0.181379 4.323427 8.295787 139.999924
61 139.999924 0.000000 0.000060 0.231978 4.082014 8.951670 139.999924
[Rope4_Seg07]
60 139.999802 0.000000 0.000000 -0.197837 2.281163 4.398899 139.999802
61 139.999802 0.000000 0.000000 -0.211599 2.153801 4.718053 139.999802
[Rope4_Seg08]
60 139.999924 0.000000 0.000119 -1.738996 1.225254 2.385622 139.999924
61 139.999924 0.000000 0.000119 -1.753837 1.148926 2.548244 139.999924
[Rope4_Seg09]
60 90.185791 0.000060 0.000060 -135.617828 2.228885 0.850567 90.185791
61 90.185791 0.000060 0.000060 -135.617828 2.228885 0.850567 90.185791
[L_rear_hand01]
60 101.696655 -8.392275 -7.654577 -12.874829 -36.868488 107.832764 102.329041
61 101.696655 -8.392275 -7.654577 -12.874829 -36.868488 107.832764 102.329041
[L_rear_hand02]
60 102.726799 -1.568258 5.773216 71.484581 71.816628 158.486160 102.900848
61 102.726799 -1.568258 5.773216 71.484581 71.816628 158.486160 102.900848
[L_rear_hand03]
60 104.552910 9.721220 -10.420293 -177.714203 -24.565960 -106.089035 105.519653
61 104.552910 9.721220 -10.420293 -177.714203 -24.565960 -106.089035 105.519653
